<?xml version="1.0" encoding="utf-8"?>
<!-- Generator: Adobe Illustrator 16.0.0, SVG Export Plug-In . SVG Version: 6.00 Build 0)  -->
<!DOCTYPE svg PUBLIC "-//W3C//DTD SVG 1.1//EN" "http://www.w3.org/Graphics/SVG/1.1/DTD/svg11.dtd">
<svg version="1.1" id="レイヤー_1" xmlns="http://www.w3.org/2000/svg" xmlns:xlink="http://www.w3.org/1999/xlink" x="0px"
	 y="0px" width="128px" height="128px" viewBox="0 0 128 128" enable-background="new 0 0 128 128" xml:space="preserve">
<polygon fill="#0C73B8" points="46.688,17.831 56.606,17.831 56.606,21.979 50.835,21.979 50.835,26.126 56.606,26.126 
	56.606,30.274 46.688,30.274 "/>
<polygon fill="#0C73B8" points="58.591,17.831 68.508,17.831 68.508,21.438 62.739,21.438 62.739,22.159 68.508,22.159 
	68.508,30.456 58.591,30.456 58.591,26.667 64.361,26.667 64.361,25.947 58.591,25.947 "/>
<polygon fill="#0C73B8" points="70.492,17.831 80.412,17.831 80.412,21.438 74.641,21.438 74.641,22.159 80.412,22.159 
	80.412,30.456 70.492,30.456 70.492,26.667 76.264,26.667 76.264,25.947 70.492,25.947 "/>
<path fill="#0C73B8" d="M31.292,35.978l5.953,66.776l26.716,7.416l26.79-7.426l5.959-66.767H31.292z M83.008,66.203l-0.199,2.199
	l-1.924,21.561l-0.125,1.385l-16.758,4.646l0,0l-0.039,0.01l-16.775-4.656l-1.146-12.859h3.788h4.433l0.583,6.531l9.12,2.463
	l0.008-0.002l9.133-2.465l0.951-10.621H64.001h-0.029H45.674l-0.734-8.191h19.032h0.029h10.764l0.746-8.386h-11.51h-0.029H44.209
	l-0.744-8.19h20.507h0.029h20.487L83.008,66.203z"/>
</svg>
