<?xml version="1.0" encoding="utf-8"?>
<!-- Generator: Adobe Illustrator 16.0.0, SVG Export Plug-In . SVG Version: 6.00 Build 0)  -->
<!DOCTYPE svg PUBLIC "-//W3C//DTD SVG 1.1//EN" "http://www.w3.org/Graphics/SVG/1.1/DTD/svg11.dtd">
<svg version="1.1" id="レイヤー_1" xmlns="http://www.w3.org/2000/svg" xmlns:xlink="http://www.w3.org/1999/xlink" x="0px"
	 y="0px" width="128px" height="128px" viewBox="0 0 128 128" enable-background="new 0 0 128 128" xml:space="preserve">
<polygon fill="#E54F26" points="38.113,19.108 42.16,19.108 42.16,23.106 45.862,23.106 45.862,19.108 49.909,19.108 49.909,31.215 
	45.862,31.215 45.862,27.161 42.16,27.161 42.16,31.215 38.113,31.215 "/>
<polygon fill="#E54F26" points="55.231,23.123 51.668,23.123 51.668,19.108 62.842,19.108 62.842,23.123 59.278,23.123 
	59.278,31.215 55.231,31.215 "/>
<polygon fill="#E54F26" points="64.616,19.108 68.836,19.108 71.43,23.362 74.023,19.108 78.244,19.108 78.244,31.215 
	74.215,31.215 74.215,25.214 71.43,29.519 71.361,29.519 68.574,25.214 68.574,31.215 64.616,31.215 "/>
<polygon fill="#E54F26" points="80.26,19.108 84.307,19.108 84.307,27.213 89.998,27.213 89.998,31.215 80.26,31.215 "/>
<path fill="#E54F26" d="M32.195,36.752l5.789,64.93l25.977,7.211l26.047-7.221l5.797-64.92H32.195z M83.73,52.161l-0.363,4.037
	l-0.16,1.79h-0.025H64h-0.028H52.734l0.728,8.154h10.51H64h16.336h2.146l-0.193,2.139l-1.873,20.965l-0.119,1.346L64,95.109l0,0
	l-0.037,0.01l-16.312-4.527l-1.115-12.504h3.684h4.309l0.567,6.35l8.869,2.396l0.007-0.002V86.83l8.881-2.396l0.924-10.328H64
	h-0.028H46.18l-1.958-21.944l-0.19-2.136h19.94H64h19.92L83.73,52.161z"/>
</svg>
