<?xml version="1.0" encoding="utf-8"?>
<!-- Generator: Adobe Illustrator 16.0.0, SVG Export Plug-In . SVG Version: 6.00 Build 0)  -->
<!DOCTYPE svg PUBLIC "-//W3C//DTD SVG 1.1//EN" "http://www.w3.org/Graphics/SVG/1.1/DTD/svg11.dtd">
<svg version="1.1" id="レイヤー_1" xmlns="http://www.w3.org/2000/svg" xmlns:xlink="http://www.w3.org/1999/xlink" x="0px"
	 y="0px" width="128px" height="128px" viewBox="0 0 128 128" enable-background="new 0 0 128 128" xml:space="preserve">
<g>
	<rect x="25.996" y="25.997" fill="#F7DF1E" width="76.008" height="76.007"/>
	<path d="M77.054,85.378c1.532,2.5,3.523,4.338,7.046,4.338c2.96,0,4.85-1.48,4.85-3.523c0-2.449-1.941-3.316-5.199-4.741
		l-1.785-0.767c-5.154-2.196-8.578-4.946-8.578-10.762c0-5.356,4.08-9.435,10.459-9.435c4.542,0,7.807,1.581,10.159,5.719
		l-5.562,3.571c-1.225-2.196-2.546-3.061-4.598-3.061c-2.091,0-3.417,1.327-3.417,3.061c0,2.143,1.327,3.01,4.392,4.337l1.785,0.765
		c6.069,2.603,9.495,5.256,9.495,11.221c0,6.431-5.052,9.953-11.835,9.953c-6.634,0-10.919-3.16-13.017-7.303L77.054,85.378z
		 M51.824,85.997c1.122,1.99,2.142,3.674,4.596,3.674c2.347,0,3.827-0.918,3.827-4.487V60.897h7.143v24.381
		c0,7.396-4.336,10.763-10.666,10.763c-5.718,0-9.03-2.96-10.714-6.524L51.824,85.997z"/>
</g>
</svg>
