<?xml version="1.0" encoding="utf-8"?>
<!-- Generator: Adobe Illustrator 16.0.0, SVG Export Plug-In . SVG Version: 6.00 Build 0)  -->
<!DOCTYPE svg PUBLIC "-//W3C//DTD SVG 1.1//EN" "http://www.w3.org/Graphics/SVG/1.1/DTD/svg11.dtd">
<svg version="1.1" id="レイヤー_1" xmlns="http://www.w3.org/2000/svg" xmlns:xlink="http://www.w3.org/1999/xlink" x="0px"
	 y="0px" width="128px" height="128px" viewBox="0 0 128 128" enable-background="new 0 0 128 128" xml:space="preserve">
<path fill="#4381B1" d="M63.75,29.345c-17.688,0-16.583,7.67-16.583,7.67l0.021,7.947h16.878v2.385H40.483
	c0,0-11.318-1.283-11.318,16.564c0,17.846,9.879,17.215,9.879,17.215h5.896v-8.283c0,0-0.318-9.879,9.721-9.879H71.4
	c0,0,9.404,0.152,9.404-9.09V38.593C80.805,38.593,82.234,29.345,63.75,29.345 M54.444,34.688c1.679,0,3.037,1.357,3.037,3.035
	c0,1.68-1.358,3.037-3.037,3.037c-1.681,0-3.037-1.357-3.037-3.037C51.407,36.046,52.763,34.688,54.444,34.688"/>
<path fill="#E09E19" d="M64.252,98.655c17.685,0,16.582-7.67,16.582-7.67l-0.02-7.947H63.937v-2.385h23.581
	c0,0,11.318,1.283,11.318-16.564c0-17.846-9.879-17.213-9.879-17.213h-5.895v8.281c0,0,0.318,9.879-9.719,9.879H56.602
	c0,0-9.406-0.152-9.406,9.09v15.281C47.196,89.407,45.768,98.655,64.252,98.655 M73.561,93.312c-1.68,0-3.037-1.357-3.037-3.035
	c0-1.68,1.357-3.037,3.037-3.037c1.676,0,3.033,1.357,3.033,3.037C76.594,91.954,75.236,93.312,73.561,93.312"/>
</svg>
