<?xml version="1.0" encoding="utf-8"?>
<!-- Generator: Adobe Illustrator 16.0.0, SVG Export Plug-In . SVG Version: 6.00 Build 0)  -->
<!DOCTYPE svg PUBLIC "-//W3C//DTD SVG 1.1//EN" "http://www.w3.org/Graphics/SVG/1.1/DTD/svg11.dtd">
<svg version="1.1" id="レイヤー_1" xmlns="http://www.w3.org/2000/svg" xmlns:xlink="http://www.w3.org/1999/xlink" x="0px"
	 y="0px" width="128px" height="128px" viewBox="0 0 128 128" enable-background="new 0 0 128 128" xml:space="preserve">
<path fill="#DF2225" d="M21.536,83.181c-3.582,0-7.165,0-10.747-0.002c-0.323,0-0.353,0.078-0.29-0.343
	c0.549-3.659,1.638-7.163,3.045-10.574c1.286-3.118,2.845-6.096,4.714-8.907c1.327-1.997,2.82-3.864,4.46-5.612
	c2.161-2.308,4.532-4.369,7.16-6.13c2.151-1.441,4.421-2.652,6.875-3.503c1.31-0.453,2.649-0.789,4.027-0.951
	c0.749-0.09,1.501-0.154,2.257-0.16c0.202-0.002,0.403-0.022,0.605-0.022c2.517-0.004,4.991,0.323,7.429,0.941
	c3.552,0.9,6.891,2.326,10.083,4.109c3.445,1.926,6.645,4.201,9.615,6.801c0.394,0.344,0.773,0.703,1.158,1.06
	c0.15,0.14,0.146,0.143-0.025,0.275c-0.225,0.174-0.449,0.348-0.674,0.522c-0.141,0.109-0.143,0.112-0.285,0.009
	c-0.566-0.416-1.139-0.822-1.723-1.216c-2.224-1.501-4.545-2.825-7.02-3.87c-2.025-0.854-4.113-1.499-6.284-1.858
	c-0.729-0.121-1.464-0.202-2.203-0.251c-0.829-0.056-1.66-0.063-2.488-0.018c-2.12,0.116-4.172,0.563-6.147,1.348
	c-1.119,0.445-2.215,0.942-3.251,1.561c-1.276,0.762-2.447,1.663-3.508,2.707c-2.218,2.183-3.753,4.787-4.775,7.71
	c-0.489,1.399-0.844,2.834-1.089,4.297c-0.176,1.056-0.292,2.115-0.368,3.183c-0.083,1.179-0.102,2.36-0.061,3.541
	c0.061,1.74,0.22,3.473,0.549,5.187c0.031,0.16,0.028,0.161-0.137,0.167c-0.067,0.002-0.134,0.001-0.201,0.001H21.536z"/>
<path fill="#DF2225" d="M49.645,78.421c-0.048,0.116-0.03,0.206-0.03,0.294c-0.001,1.398-0.001,2.797-0.001,4.195
	c0,0.291,0.017,0.27-0.265,0.27c-1.615,0.001-3.23,0.001-4.845,0.001c-0.268-0.001-0.269-0.001-0.269-0.269
	c0-4.681-0.001-9.361-0.001-14.043V63.53c0-0.044-0.001-0.089,0-0.134c0.005-0.189,0.005-0.19,0.185-0.195c0.06-0.001,0.12,0,0.18,0
	c3.342,0,6.684,0.003,10.027-0.003c0.571-0.001,1.11,0.142,1.642,0.317c1.097,0.362,2.069,0.932,2.871,1.773
	c0.788,0.827,1.285,1.811,1.538,2.92c0.249,1.092,0.257,2.193,0.119,3.3c-0.112,0.897-0.35,1.76-0.791,2.555
	c-0.832,1.501-2.101,2.417-3.775,2.778c-0.065,0.014-0.137,0.002-0.205,0.08c2.047,2.066,4.096,4.134,6.141,6.199
	c-0.05,0.077-0.107,0.058-0.156,0.058c-2.527,0.002-5.054,0-7.582,0.005c-0.147,0-0.231-0.073-0.321-0.166
	c-1.395-1.447-2.792-2.896-4.189-4.342C49.836,78.591,49.762,78.495,49.645,78.421 M49.614,70.508v1.997
	c0,0.052,0.002,0.104,0.001,0.156c-0.002,0.086,0.042,0.122,0.124,0.122c0.037,0,0.075,0.002,0.112,0.002
	c1.301,0,2.602-0.001,3.903,0.001c0.126,0,0.234-0.031,0.338-0.098c0.363-0.234,0.635-0.55,0.797-0.946
	c0.343-0.834,0.342-1.677,0.002-2.512c-0.155-0.383-0.417-0.688-0.767-0.913c-0.104-0.067-0.212-0.099-0.337-0.099
	c-1.316,0.003-2.632,0.001-3.948,0.002c-0.222,0-0.224,0.003-0.225,0.225C49.614,69.132,49.614,69.821,49.614,70.508"/>
<path fill="#DF2225" d="M79.389,75.47c0,2.476,0,4.951-0.001,7.426c0,0.301,0.022,0.284-0.274,0.284
	c-1.585,0.001-3.171,0.001-4.756,0.001h-0.045c-0.219-0.003-0.222-0.003-0.222-0.224c-0.001-1.002-0.001-2.006-0.001-3.008
	c0.001-0.302-0.006-0.271-0.268-0.271h-4.599h-0.022c-0.246,0.002-0.246,0.002-0.246,0.246c-0.002,0.979-0.002,1.959-0.002,2.938
	c0,0.06-0.002,0.12,0,0.18c0.004,0.091-0.029,0.142-0.129,0.137c-0.052-0.003-0.104,0.001-0.156,0.001h-4.891
	c-0.045,0-0.09-0.004-0.135-0.001c-0.103,0.007-0.154-0.036-0.148-0.141c0.002-0.046-0.001-0.091-0.001-0.136
	c0-4.727-0.005-9.452,0.003-14.179c0.003-1.589,0.596-2.945,1.724-4.057c0.773-0.762,1.727-1.161,2.801-1.287
	c0.252-0.029,0.506-0.041,0.761-0.041c1.772,0,3.544-0.018,5.316,0.006c1.403,0.019,2.651,0.496,3.711,1.422
	c0.847,0.738,1.315,1.689,1.496,2.788c0.064,0.392,0.083,0.788,0.083,1.185V75.47z M71.502,74.019c0.776,0,1.555,0.001,2.332,0
	c0.222,0,0.225-0.002,0.225-0.222c0-1.51,0.001-3.02,0-4.53c-0.001-0.417-0.193-0.729-0.54-0.948
	c-0.225-0.142-0.479-0.216-0.743-0.225c-0.83-0.026-1.658-0.03-2.488,0.004c-0.279,0.012-0.548,0.089-0.789,0.23
	c-0.36,0.212-0.567,0.514-0.566,0.95c0.005,1.495,0.002,2.99,0.002,4.485c0,0.052,0.002,0.104,0.004,0.156
	c0.001,0.063,0.034,0.096,0.098,0.097c0.06,0.001,0.119,0.002,0.178,0.002C69.977,74.02,70.738,74.019,71.502,74.019"/>
<path fill="#DF2225" d="M109.938,83.181c-1.525,0-3.052,0-4.577-0.001c-0.271,0-0.273,0.04-0.273-0.263v-4.555
	c0-0.036,0.003-0.074,0.001-0.111c-0.007-0.106,0.043-0.145,0.147-0.144c0.306,0.003,0.613,0,0.92-0.001
	c2.633-0.006,5.265-0.012,7.897-0.018c0.34-0.001,0.307,0.021,0.308-0.298c0.001-0.636,0.001-1.271,0-1.906
	c-0.001-0.275,0.021-0.264-0.273-0.264c-1.323-0.001-2.647,0.022-3.971-0.006c-1.897-0.041-3.418-0.834-4.501-2.406
	c-0.518-0.751-0.766-1.605-0.798-2.512c-0.03-0.844-0.051-1.69,0.016-2.533c0.117-1.491,0.784-2.697,1.948-3.625
	c0.851-0.678,1.822-1.077,2.908-1.184c0.171-0.017,0.344-0.016,0.516-0.016c2.753-0.001,5.505-0.001,8.257,0
	c0.289,0,0.278-0.024,0.278,0.281v4.532v0.045c-0.002,0.244-0.002,0.246-0.249,0.246c-2.813,0-5.624-0.001-8.436,0.001
	c-0.43,0-0.368-0.052-0.37,0.367c-0.004,0.591-0.002,1.182-0.001,1.772c0.001,0.206,0.004,0.209,0.214,0.209
	c1.458,0.001,2.917-0.019,4.375,0.006c1.603,0.027,2.947,0.651,4,1.864c0.677,0.779,1.043,1.7,1.156,2.725
	c0.062,0.559,0.033,1.12,0.035,1.681c0.001,0.464,0.018,0.927-0.034,1.39c-0.219,1.961-1.217,3.369-2.997,4.215
	c-0.726,0.344-1.492,0.515-2.301,0.509C112.735,83.173,111.336,83.181,109.938,83.181"/>
<path fill="#DF2225" d="M89.896,73.263c0-3.199,0-6.399,0.001-9.6c0-0.364-0.034-0.322,0.324-0.323c1.667-0.001,3.335,0,5.002,0
	c0.045,0,0.09-0.001,0.135,0c0.193,0.004,0.193,0.004,0.197,0.203c0.001,0.067,0.001,0.135,0.001,0.202
	c0,4.658-0.001,9.315,0,13.974c0,0.375-0.045,0.336,0.334,0.336c2.348,0.001,4.695,0.001,7.043,0.001c0.286,0,0.28-0.029,0.28,0.28
	v4.576v0.022c-0.003,0.244-0.003,0.245-0.246,0.245c-2.856,0.001-5.713,0.001-8.568,0.001h-4.172c-0.053,0-0.105,0.001-0.157-0.001
	c-0.168-0.006-0.168-0.007-0.173-0.182c-0.002-0.067-0.001-0.135-0.001-0.202V73.263z"/>
<path fill="#DF2225" d="M87.567,73.256c0,3.207,0.001,6.415,0,9.622c0,0.329,0.034,0.302-0.301,0.302
	c-1.704,0.001-3.409,0.001-5.114,0c-0.301,0-0.277,0.018-0.277-0.279v-19.27v-0.045c0.002-0.245,0.002-0.246,0.245-0.246
	c1.735-0.001,3.47,0,5.204,0c0.045,0,0.09,0.002,0.135,0.002c0.076-0.001,0.106,0.04,0.106,0.111c0,0.075,0.002,0.149,0.002,0.225
	V73.256z"/>
<path fill="#DF2225" d="M13.098,69.725c-0.014,0.036-0.025,0.071-0.041,0.105c-0.437,1.016-0.872,2.032-1.277,3.062
	c-0.056,0.143-0.062,0.146-0.214,0.09c-0.969-0.354-1.937-0.708-2.905-1.063c-0.156-0.058-0.16-0.063-0.106-0.203
	c0.401-1.039,0.841-2.062,1.286-3.082c0.047-0.106,0.1-0.124,0.206-0.085c0.974,0.36,1.95,0.715,2.926,1.073
	C13.024,69.64,13.093,69.645,13.098,69.725"/>
<path fill="#DF2225" d="M33.457,77.623c0.111-0.02,0.183,0.027,0.259,0.055c0.85,0.306,1.699,0.616,2.552,0.916
	c0.154,0.055,0.218,0.133,0.239,0.298c0.131,1.03,0.33,2.049,0.556,3.063c0.022,0.1,0.058,0.198,0.054,0.298
	c-0.063,0.045-0.11,0.014-0.157-0.003c-1.005-0.36-2.01-0.723-3.017-1.079c-0.123-0.043-0.172-0.109-0.192-0.236
	c-0.122-0.828-0.213-1.659-0.259-2.496C33.477,78.171,33.44,77.903,33.457,77.623"/>
<path fill="#DF2225" d="M36.138,72.198c-0.086,0.011-0.125-0.042-0.169-0.078c-0.651-0.513-1.299-1.029-1.953-1.538
	c-0.108-0.084-0.145-0.165-0.113-0.301c0.199-0.843,0.402-1.685,0.669-2.509c0.023-0.07,0.047-0.142,0.072-0.212
	c0.065-0.177,0.067-0.179,0.223-0.057c0.574,0.453,1.146,0.91,1.723,1.359c0.104,0.08,0.13,0.154,0.097,0.283
	c-0.184,0.716-0.324,1.441-0.432,2.173c-0.026,0.177-0.046,0.354-0.069,0.532C36.17,71.969,36.154,72.085,36.138,72.198"/>
<path fill="#DF2225" d="M21.555,57.147c-0.006,0.064-0.061,0.099-0.1,0.142c-0.426,0.451-0.835,0.918-1.23,1.397
	c-0.147,0.179-0.289,0.361-0.436,0.541c-0.104,0.127-0.109,0.129-0.225,0.029c-0.637-0.544-1.273-1.088-1.908-1.635
	c-0.127-0.109-0.126-0.115-0.007-0.244c0.59-0.637,1.205-1.248,1.829-1.851c0.119-0.116,0.124-0.116,0.253-0.004
	c0.575,0.501,1.15,1.003,1.723,1.505C21.493,57.063,21.542,57.089,21.555,57.147"/>
<path fill="#DF2225" d="M39.288,63.47c-0.225-0.336-0.411-0.615-0.597-0.894c-0.228-0.342-0.454-0.685-0.684-1.024
	c-0.052-0.077-0.066-0.134,0-0.216c0.493-0.611,1.022-1.188,1.6-1.721c0.015-0.013,0.038-0.019,0.056-0.027
	c0.046,0.022,0.067,0.063,0.092,0.101c0.359,0.541,0.715,1.084,1.077,1.623c0.068,0.1,0.086,0.171-0.009,0.27
	c-0.534,0.556-1.033,1.139-1.474,1.771C39.331,63.377,39.321,63.405,39.288,63.47"/>
<path fill="#DF2225" d="M32.146,48.772c0.005,0.046-0.011,0.068-0.039,0.085c-0.032,0.02-0.064,0.038-0.097,0.055
	c-0.618,0.319-1.217,0.673-1.81,1.036c-0.173,0.105-0.176,0.104-0.29-0.07c-0.354-0.537-0.707-1.074-1.059-1.612
	c-0.113-0.171-0.111-0.173,0.072-0.281c0.6-0.352,1.211-0.684,1.827-1.007c0.17-0.089,0.174-0.088,0.28,0.073
	c0.352,0.538,0.702,1.077,1.053,1.617C32.107,48.704,32.128,48.744,32.146,48.772"/>
<path fill="#DF2225" d="M56.585,48.644c-0.079,0.016-0.138-0.021-0.199-0.047c-0.764-0.306-1.534-0.593-2.313-0.858
	c-0.195-0.067-0.193-0.069-0.181-0.265c0.024-0.403,0.046-0.807,0.07-1.21c0.008-0.133,0.023-0.266,0.032-0.376
	c0.04-0.051,0.072-0.042,0.099-0.034c0.797,0.23,1.591,0.473,2.349,0.816c0.322,0.146,0.263,0.101,0.249,0.414
	c-0.023,0.493-0.057,0.985-0.088,1.479C56.601,48.591,56.591,48.618,56.585,48.644"/>
<path fill="#DF2225" d="M47.972,57.098c-0.014,0.07-0.07,0.077-0.118,0.094c-0.225,0.08-0.452,0.154-0.675,0.237
	c-0.49,0.183-0.969,0.392-1.442,0.613c-0.181,0.084-0.184,0.081-0.248-0.109c-0.176-0.522-0.351-1.048-0.523-1.572
	c-0.054-0.163-0.053-0.169,0.102-0.235c0.7-0.299,1.414-0.563,2.145-0.778c0.157-0.046,0.162-0.044,0.211,0.099
	c0.174,0.516,0.346,1.033,0.518,1.55C47.954,57.03,47.963,57.066,47.972,57.098"/>
<path fill="#DF2225" d="M56.658,55.826c-0.017,0.238-0.032,0.477-0.05,0.715c-0.013,0.17-0.021,0.182-0.188,0.149
	c-0.367-0.07-0.735-0.13-1.105-0.181c-0.429-0.059-0.861-0.083-1.293-0.114c-0.198-0.015-0.2-0.016-0.188-0.208
	c0.028-0.455,0.056-0.909,0.087-1.363c0.013-0.193,0.018-0.2,0.215-0.186c0.812,0.058,1.618,0.166,2.419,0.316
	c0.124,0.023,0.154,0.085,0.145,0.2c-0.02,0.224-0.029,0.447-0.043,0.671H56.658z"/>
<path fill="#DF2225" d="M41.334,45.974c-0.208,0.011-0.209,0.012-0.276-0.195c-0.136-0.419-0.272-0.838-0.405-1.258
	c-0.055-0.176-0.045-0.186,0.139-0.206c0.758-0.082,1.517-0.141,2.279-0.141c0.212,0,0.214-0.002,0.281,0.2
	c0.14,0.425,0.28,0.851,0.418,1.276c0.073,0.226,0.071,0.229-0.154,0.229c-0.59-0.001-1.18,0.013-1.77,0.052
	C41.676,45.942,41.505,45.959,41.334,45.974"/>
</svg>
